<?xml version="1.0" encoding="UTF-8" standalone="no"?>
<!-- Created with Inkscape (http://www.inkscape.org/) -->

<svg
   width="210mm"
   height="297mm"
   viewBox="0 0 210 297"
   version="1.1"
   id="svg1"
   inkscape:version="1.3 (0e150ed6c4, 2023-07-21)"
   sodipodi:docname="RoboStandF.svg"
   xmlns:inkscape="http://www.inkscape.org/namespaces/inkscape"
   xmlns:sodipodi="http://sodipodi.sourceforge.net/DTD/sodipodi-0.dtd"
   xmlns="http://www.w3.org/2000/svg"
   xmlns:svg="http://www.w3.org/2000/svg">
  <sodipodi:namedview
     id="namedview1"
     pagecolor="#ffffff"
     bordercolor="#000000"
     borderopacity="0.25"
     inkscape:showpageshadow="2"
     inkscape:pageopacity="0.0"
     inkscape:pagecheckerboard="0"
     inkscape:deskcolor="#d1d1d1"
     inkscape:document-units="mm"
     showgrid="true"
     showguides="true"
     inkscape:zoom="0.78817261"
     inkscape:cx="935.70873"
     inkscape:cy="723.82621"
     inkscape:window-width="2880"
     inkscape:window-height="1814"
     inkscape:window-x="-11"
     inkscape:window-y="-11"
     inkscape:window-maximized="1"
     inkscape:current-layer="layer1">
    <inkscape:grid
       id="grid12"
       units="mm"
       originx="0"
       originy="0"
       spacingx="0.99999998"
       spacingy="1"
       empcolor="#0099e5"
       empopacity="0.30196078"
       color="#0099e5"
       opacity="0.14901961"
       empspacing="5"
       dotted="false"
       gridanglex="30"
       gridanglez="30"
       visible="true" />
    <sodipodi:guide
       position="34.057416,197"
       orientation="0,1"
       id="guide14"
       inkscape:locked="false"
       inkscape:label=""
       inkscape:color="rgb(0,134,229)" />
    <sodipodi:guide
       position="75,-703"
       orientation="0,1"
       id="guide15"
       inkscape:locked="false"
       inkscape:label=""
       inkscape:color="rgb(0,134,229)" />
    <sodipodi:guide
       position="75.365028,164.66613"
       orientation="1,0"
       id="guide2"
       inkscape:locked="false" />
    <sodipodi:guide
       position="44.862962,269"
       orientation="0,1"
       id="guide3"
       inkscape:locked="false"
       inkscape:label=""
       inkscape:color="rgb(0,134,229)" />
    <sodipodi:guide
       position="229.29959,-14.904406"
       orientation="0,1"
       id="guide5"
       inkscape:locked="false"
       inkscape:label=""
       inkscape:color="rgb(0,134,229)" />
    <sodipodi:guide
       position="109.85524,79.891122"
       orientation="1,0"
       id="guide4"
       inkscape:locked="false" />
    <sodipodi:guide
       position="227.40063,-10.631743"
       orientation="0,-1"
       id="guide6"
       inkscape:locked="false" />
  </sodipodi:namedview>
  <defs
     id="defs1">
    <linearGradient
       id="swatch1"
       inkscape:swatch="solid">
      <stop
         style="stop-color:#000000;stop-opacity:1;"
         offset="0"
         id="stop1" />
    </linearGradient>
  </defs>
  <g
     inkscape:label="Layer 1"
     inkscape:groupmode="layer"
     id="layer1">
    <g
       id="g16" />
    <path
       id="path15-1"
       style="fill:none;fill-opacity:1;fill-rule:nonzero;stroke:#ff0000;stroke-width:0.188148;stroke-linejoin:round;stroke-dasharray:none;stroke-opacity:1"
       d="m 64.521852,42.804663 h 4.867883 m -4.8679,0 0.129165,-9.939302 -8.139114,0.118685 v 2e-6 c -3.395024,0 -6.128202,2.084728 -6.128202,4.67428 v 10.627805 c 0,2.589551 2.733178,4.674279 6.128202,4.674279 h 21.790551 c 3.395018,0 6.128202,-2.084728 6.128202,-4.674279 V 37.658326 c 0,-2.589552 -2.733184,-4.67428 -6.128202,-4.67428 h -8.908713 l -0.122585,9.820617"
       sodipodi:nodetypes="cccssssssscsscc" />
    <path
       id="path15-1-6"
       style="fill:none;fill-opacity:1;fill-rule:nonzero;stroke:#ff0000;stroke-width:0.188148;stroke-linejoin:round;stroke-dasharray:none;stroke-opacity:1"
       d="m 24.224067,42.647747 h 4.867883 m -4.8679,0 0.129165,-9.939302 -8.139114,0.118685 v 2e-6 c -3.395024,0 -6.128202,2.084728 -6.128202,4.67428 v 10.627805 c 0,2.589551 2.733178,4.674279 6.128202,4.674279 h 21.790551 c 3.395018,0 6.128202,-2.084728 6.128202,-4.674279 V 37.50141 c 0,-2.589552 -2.733184,-4.67428 -6.128202,-4.67428 h -8.908713 l -0.122585,9.820617"
       sodipodi:nodetypes="cccssssssscsscc" />
    <circle
       style="fill:none;stroke:#ff0000;stroke-width:0.264583;stroke-opacity:1"
       id="path3"
       cx="75.132294"
       cy="100.13229"
       r="30" />
    <g
       id="g9">
      <rect
         style="fill-opacity:1;fill-rule:nonzero;stroke-width:2.091;stroke-dasharray:none;stroke:none;fill:none"
         id="rect1"
         width="117.05335"
         height="121.49902"
         x="51.400127"
         y="120.96421"
         ry="20.482759" />
      <path
         style="fill:none;stroke:#ff0000;stroke-width:0.264583;stroke-opacity:1"
         d="m 23.960091,270.13519 c -0.574586,-0.001 -1.148568,-0.002 -1.72192,-0.003 m 0,0 c -6.706648,-0.0108 -12.105879,-5.39922 -12.105879,-12.10588 V 72.238169 c 0,-6.706657 5.399222,-12.105879 12.105879,-12.105879 H 128.02641 c 6.70666,0 12.10588,5.399222 12.10588,12.105879 V 258.02641 c 0,6.70666 -5.39922,12.10588 -12.10588,12.10588 -0.6848,0.01 -1.37083,0.0189 -2.05806,0.0278"
         id="rect2" />
      <path
         style="fill:none;stroke:#ff0000;stroke-width:0.264583;stroke-opacity:1"
         d="m 23.918063,270.10627 v -10.15469 h 6.042459 v 10.07076 0.0839"
         id="path7"
         sodipodi:nodetypes="ccccc" />
      <path
         style="fill:none;stroke:#ff0000;stroke-width:0.264583;stroke-opacity:1"
         d="m 119.96797,270.10627 v -10.11273 h 6.00049 v 10.0288 h -0.0839"
         id="path8" />
      <path
         style="fill:none;stroke:#ff0000;stroke-width:0.264583;stroke-opacity:1"
         d="m 40.293586,270.24594 v -15.19169 h 69.490124 v 15.25104 l -0.17803,-0.0593"
         id="path6" />
      <path
         style="fill:none;stroke:#ff0000;stroke-width:0.264583;stroke-opacity:1"
         d="M 29.997656,270.03824 H 40.263915"
         id="path1" />
      <path
         style="fill:none;stroke:#ff0000;stroke-width:0.264583;stroke-opacity:1"
         d="m 120.07963,270.0679 h -10.3256 v 0.089"
         id="path2" />
    </g>
    <path
       id="path15-1-8"
       style="fill:none;fill-opacity:1;fill-rule:nonzero;stroke:#ff0000;stroke-width:0.188148;stroke-linejoin:round;stroke-dasharray:none;stroke-opacity:1"
       d="m 64.498746,15.266619 h 4.867883 m -4.8679,0 0.129165,-9.9392993 -8.139114,0.118685 v 2e-6 c -3.395024,0 -6.128202,2.0847268 -6.128202,4.6742773 v 10.627805 c 0,2.589551 2.733178,4.674279 6.128202,4.674279 h 21.790551 c 3.395018,0 6.128202,-2.084728 6.128202,-4.674279 V 10.120282 c 0,-2.5895505 -2.733184,-4.6742773 -6.128202,-4.6742773 h -8.908713 l -0.122585,9.8206143"
       sodipodi:nodetypes="cccssssssscsscc" />
    <path
       id="path15-1-6-2"
       style="fill:none;fill-opacity:1;fill-rule:nonzero;stroke:#ff0000;stroke-width:0.188148;stroke-linejoin:round;stroke-dasharray:none;stroke-opacity:1"
       d="m 24.200961,15.109703 h 4.867883 m -4.8679,0 0.129165,-9.939299 -8.139114,0.1186847 v 2e-6 c -3.395024,0 -6.128202,2.0847268 -6.128202,4.6742776 V 20.591173 c 0,2.589551 2.733178,4.674279 6.128202,4.674279 h 21.790551 c 3.395018,0 6.128202,-2.084728 6.128202,-4.674279 V 9.9633663 c 0,-2.5895508 -2.733184,-4.6742776 -6.128202,-4.6742776 h -8.908713 l -0.122585,9.8206143"
       sodipodi:nodetypes="cccssssssscsscc" />
  </g>
</svg>
