<?xml version="1.0" encoding="UTF-8" standalone="no"?>
<!-- Created with Inkscape (http://www.inkscape.org/) -->

<svg
   width="210mm"
   height="297mm"
   viewBox="0 0 210 297"
   version="1.1"
   id="svg1"
   inkscape:version="1.3 (0e150ed6c4, 2023-07-21)"
   sodipodi:docname="RoboStand.svg"
   xmlns:inkscape="http://www.inkscape.org/namespaces/inkscape"
   xmlns:sodipodi="http://sodipodi.sourceforge.net/DTD/sodipodi-0.dtd"
   xmlns="http://www.w3.org/2000/svg"
   xmlns:svg="http://www.w3.org/2000/svg">
  <sodipodi:namedview
     id="namedview1"
     pagecolor="#ffffff"
     bordercolor="#000000"
     borderopacity="0.25"
     inkscape:showpageshadow="2"
     inkscape:pageopacity="0.0"
     inkscape:pagecheckerboard="0"
     inkscape:deskcolor="#d1d1d1"
     inkscape:document-units="mm"
     showgrid="true"
     showguides="true"
     inkscape:zoom="2.2292888"
     inkscape:cx="194.90521"
     inkscape:cy="221.37105"
     inkscape:window-width="2880"
     inkscape:window-height="1814"
     inkscape:window-x="-11"
     inkscape:window-y="-11"
     inkscape:window-maximized="1"
     inkscape:current-layer="g9">
    <inkscape:grid
       id="grid12"
       units="mm"
       originx="0"
       originy="0"
       spacingx="0.99999998"
       spacingy="1"
       empcolor="#0099e5"
       empopacity="0.30196078"
       color="#0099e5"
       opacity="0.14901961"
       empspacing="5"
       dotted="false"
       gridanglex="30"
       gridanglez="30"
       visible="true" />
    <sodipodi:guide
       position="34.057416,197"
       orientation="0,1"
       id="guide14"
       inkscape:locked="false"
       inkscape:label=""
       inkscape:color="rgb(0,134,229)" />
    <sodipodi:guide
       position="75,-703"
       orientation="0,1"
       id="guide15"
       inkscape:locked="false"
       inkscape:label=""
       inkscape:color="rgb(0,134,229)" />
    <sodipodi:guide
       position="75.365028,164.66613"
       orientation="1,0"
       id="guide2"
       inkscape:locked="false" />
    <sodipodi:guide
       position="44.862962,269"
       orientation="0,1"
       id="guide3"
       inkscape:locked="false"
       inkscape:label=""
       inkscape:color="rgb(0,134,229)" />
    <sodipodi:guide
       position="6.2103042,37"
       orientation="0,1"
       id="guide5"
       inkscape:locked="false"
       inkscape:label=""
       inkscape:color="rgb(0,134,229)" />
    <sodipodi:guide
       position="109.85524,79.891122"
       orientation="1,0"
       id="guide4"
       inkscape:locked="false" />
    <sodipodi:guide
       position="48.186145,41.886404"
       orientation="0,-1"
       id="guide6"
       inkscape:locked="false" />
  </sodipodi:namedview>
  <defs
     id="defs1">
    <linearGradient
       id="swatch1"
       inkscape:swatch="solid">
      <stop
         style="stop-color:#000000;stop-opacity:1;"
         offset="0"
         id="stop1" />
    </linearGradient>
  </defs>
  <g
     inkscape:label="Layer 1"
     inkscape:groupmode="layer"
     id="layer1">
    <g
       id="g16" />
    <path
       id="path15-1"
       style="fill:none;fill-opacity:1;fill-rule:nonzero;stroke:#ff0000;stroke-width:0.164514;stroke-linejoin:round;stroke-dasharray:none;stroke-opacity:1"
       d="m 51.060822,42.804465 h 5.801948 m -5.801961,0 0.008,-9.832236 h -5.037203 v 2e-6 c -2.592615,0 -4.67981,2.087195 -4.67981,4.67981 V 48.29242 c 0,2.592614 2.087195,4.679809 4.67981,4.679809 h 16.640383 c 2.59261,0 4.67981,-2.087195 4.67981,-4.679809 V 37.652039 c 0,-2.592615 -2.0872,-4.67981 -4.67981,-4.67981 h -5.806173 l -0.003,9.832236"
       sodipodi:nodetypes="cccsssssssc" />
    <path
       id="path15-1-8"
       style="fill:none;fill-opacity:1;fill-rule:nonzero;stroke:#ff0000;stroke-width:0.164514;stroke-linejoin:round;stroke-dasharray:none;stroke-opacity:1"
       d="m 51.095977,17.784534 h 5.801948 m -5.801961,0 0.008,-9.832236 h -5.037203 v 2e-6 c -2.592615,0 -4.67981,2.087195 -4.67981,4.67981 v 10.640375 c 0,2.59262 2.087195,4.67981 4.67981,4.67981 h 16.640383 c 2.59261,0 4.67981,-2.08719 4.67981,-4.67981 V 12.632108 c 0,-2.592615 -2.0872,-4.67981 -4.67981,-4.67981 h -5.806173 l -0.003,9.832236"
       sodipodi:nodetypes="cccsssssssc" />
    <path
       id="path15-1-8-3"
       style="fill:none;fill-opacity:1;fill-rule:nonzero;stroke:#ff0000;stroke-width:0.164514;stroke-linejoin:round;stroke-dasharray:none;stroke-opacity:1"
       d="m 19.836137,42.828351 h 5.801948 m -5.801961,0 0.008,-9.832236 h -5.037203 v 2e-6 c -2.592615,0 -4.67981,2.087195 -4.67981,4.67981 v 10.640375 c 0,2.59262 2.087195,4.67981 4.67981,4.67981 h 16.640383 c 2.59261,0 4.67981,-2.08719 4.67981,-4.67981 V 37.675925 c 0,-2.592615 -2.0872,-4.67981 -4.67981,-4.67981 h -5.806173 l -0.003,9.832236"
       sodipodi:nodetypes="cccsssssssc" />
    <path
       id="path15-1-8-0"
       style="fill:none;fill-opacity:1;fill-rule:nonzero;stroke:#ff0000;stroke-width:0.165;stroke-linejoin:round;stroke-dasharray:none;stroke-opacity:1"
       d="m 19.77697,17.934154 h 5.801948 m -5.801961,0 0.008,-9.8322358 h -5.037203 v 2e-6 c -2.592615,0 -4.67981,2.0871948 -4.67981,4.6798098 v 10.640375 c 0,2.59262 2.087195,4.67981 4.67981,4.67981 h 16.640383 c 2.59261,0 4.67981,-2.08719 4.67981,-4.67981 V 12.781728 c 0,-2.592615 -2.0872,-4.6798098 -4.67981,-4.6798098 h -5.806173 l -0.003,9.8322358"
       sodipodi:nodetypes="cccsssssssc" />
    <circle
       style="fill:none;stroke:#ff0000;stroke-width:0.264583;stroke-opacity:1"
       id="path3"
       cx="75.132294"
       cy="100.13229"
       r="30" />
    <g
       id="g9"
       style="stroke:#ff0000;stroke-opacity:1">
      <path
         style="fill:none;stroke:#ff0000;stroke-width:0.264583;stroke-opacity:1"
         d="m 23.960091,270.13519 c -0.574586,-0.001 -1.148568,-0.002 -1.72192,-0.003 m 0,0 c -6.706648,-0.0108 -12.105879,-5.39922 -12.105879,-12.10588 V 72.238169 c 0,-6.706657 5.399222,-12.105879 12.105879,-12.105879 H 128.02641 c 6.70666,0 12.10588,5.399222 12.10588,12.105879 V 258.02641 c 0,6.70666 -5.39922,12.10588 -12.10588,12.10588 -0.6848,0.01 -1.37083,0.0189 -2.05806,0.0278"
         id="rect2" />
      <path
         style="fill:none;stroke:#ff0000;stroke-width:0.264583;stroke-opacity:1"
         d="m 23.918063,270.10627 v -10.15469 h 6.042459 v 10.07076 0.0839"
         id="path7"
         sodipodi:nodetypes="ccccc" />
      <path
         style="fill:none;stroke:#ff0000;stroke-width:0.264583;stroke-opacity:1"
         d="m 119.96797,270.10627 v -10.11273 h 6.00049 v 10.0288 h -0.0839"
         id="path8" />
      <path
         style="fill:none;stroke:#ff0000;stroke-width:0.264583;stroke-opacity:1"
         d="m 40.293586,270.24594 v -15.19169 h 69.490124 v 15.25104 l -0.17803,-0.0593"
         id="path6" />
      <path
         style="fill:none;stroke:#ff0000;stroke-width:0.264583;stroke-opacity:1"
         d="M 29.997656,270.03824 H 40.263915"
         id="path1" />
      <path
         style="fill:none;stroke:#ff0000;stroke-width:0.264583;stroke-opacity:1"
         d="m 120.07963,270.0679 h -10.3256 v 0.089"
         id="path2" />
    </g>
  </g>
</svg>
